<svg xmlns="http://www.w3.org/2000/svg" width="1440" height="900" viewBox="0 0 1440 900">
  <defs>
    <linearGradient id="bg" x1="0" y1="0" x2="1" y2="1">
      <stop offset="0%" stop-color="#fffdf9"/>
      <stop offset="100%" stop-color="#f7efe7"/>
    </linearGradient>
  </defs>
  <rect width="1440" height="900" fill="url(#bg)"/>
  <rect x="24" y="24" width="1392" height="852" rx="36" fill="none" stroke="#e0d7ce" stroke-width="2"/>
  <text x="56" y="78" font-family="Hiragino Sans, Yu Gothic, sans-serif" font-size="40" font-weight="800" fill="#332b27" text-anchor="start">マイページの主な設定場所</text>
  <text x="56" y="118" font-family="Hiragino Sans, Yu Gothic, sans-serif" font-size="24" font-weight="500" fill="#6d655f" text-anchor="start">会員情報・注文履歴・パスコード・引き継ぎコードをまとめて確認できます。</text>
  <rect x="160" y="160" width="390" height="650" rx="42" fill="#24201d" stroke="#24201d" stroke-width="2" /><rect x="174" y="174" width="362" height="622" rx="34" fill="#f7f1ea" stroke="#1d1916" stroke-width="2" /><rect x="270" y="180" width="170" height="18" rx="9" fill="#181513" stroke="#181513" stroke-width="0" /><rect x="188" y="212" width="334" height="74" rx="22" fill="#fffaf6" stroke="#e1d7ce" stroke-width="2" /><text x="214" y="257" font-family="Hiragino Sans, Yu Gothic, sans-serif" font-size="26" font-weight="700" fill="#342d28" text-anchor="start">マイページ</text><text x="500" y="257" font-family="Hiragino Sans, Yu Gothic, sans-serif" font-size="20" font-weight="600" fill="#8a7f77" text-anchor="end">会員情報</text><rect x="190" y="260" width="330" height="90" rx="22" fill="#fff" stroke="#ddd3ca" stroke-width="2" /><text x="218" y="314" font-family="Hiragino Sans, Yu Gothic, sans-serif" font-size="24" font-weight="700" fill="#433832" text-anchor="start">✏️ プロフィールを編集</text><rect x="190" y="370" width="330" height="90" rx="22" fill="#eef3e7" stroke="#c7d2bc" stroke-width="2" /><text x="218" y="424" font-family="Hiragino Sans, Yu Gothic, sans-serif" font-size="20" font-weight="700" fill="#526147" text-anchor="start">ログイン時のパスコード  ON</text><rect x="190" y="480" width="330" height="90" rx="22" fill="#fff" stroke="#ddd3ca" stroke-width="2" /><text x="218" y="534" font-family="Hiragino Sans, Yu Gothic, sans-serif" font-size="24" font-weight="700" fill="#433832" text-anchor="start">📋 ご注文履歴</text><rect x="190" y="590" width="330" height="90" rx="22" fill="#fff" stroke="#ddd3ca" stroke-width="2" /><text x="218" y="644" font-family="Hiragino Sans, Yu Gothic, sans-serif" font-size="24" font-weight="700" fill="#433832" text-anchor="start">↺ 引き継ぎコードの発行</text><rect x="182" y="254" width="346" height="102" rx="24" fill="none" stroke="#e23232" stroke-width="8" /><rect x="182" y="364" width="346" height="102" rx="24" fill="none" stroke="#e23232" stroke-width="8" /><rect x="182" y="474" width="346" height="102" rx="24" fill="none" stroke="#e23232" stroke-width="8" /><rect x="182" y="584" width="346" height="102" rx="24" fill="none" stroke="#e23232" stroke-width="8" /><rect x="620" y="190" width="680" height="580" rx="28" fill="#fff" stroke="#ddd3ca" stroke-width="2" /><text x="654" y="258" font-family="Hiragino Sans, Yu Gothic, sans-serif" font-size="22" font-weight="600" fill="#473a34" text-anchor="start">マイページでは、赤枠の場所を使います。</text><text x="654" y="300" font-family="Hiragino Sans, Yu Gothic, sans-serif" font-size="22" font-weight="600" fill="#473a34" text-anchor="start"></text><text x="654" y="342" font-family="Hiragino Sans, Yu Gothic, sans-serif" font-size="22" font-weight="600" fill="#473a34" text-anchor="start">・プロフィールを編集</text><text x="654" y="384" font-family="Hiragino Sans, Yu Gothic, sans-serif" font-size="22" font-weight="600" fill="#473a34" text-anchor="start">・ログイン時のパスコードをオン / オフ</text><text x="654" y="426" font-family="Hiragino Sans, Yu Gothic, sans-serif" font-size="22" font-weight="600" fill="#473a34" text-anchor="start">・注文履歴を確認</text><text x="654" y="468" font-family="Hiragino Sans, Yu Gothic, sans-serif" font-size="22" font-weight="600" fill="#473a34" text-anchor="start">・引き継ぎコードを発行</text><rect x="654" y="566" width="220" height="56" rx="20" fill="#fff4f4" stroke="#e23232" stroke-width="3" /><text x="764" y="601" font-family="Hiragino Sans, Yu Gothic, sans-serif" font-size="22" font-weight="700" fill="#b01e1e" text-anchor="middle">設定はここから</text>
</svg>