<svg xmlns="http://www.w3.org/2000/svg" width="1440" height="900" viewBox="0 0 1440 900">
  <defs>
    <linearGradient id="bg" x1="0" y1="0" x2="1" y2="1">
      <stop offset="0%" stop-color="#fffdf9"/>
      <stop offset="100%" stop-color="#f7efe7"/>
    </linearGradient>
  </defs>
  <rect width="1440" height="900" fill="url(#bg)"/>
  <rect x="24" y="24" width="1392" height="852" rx="36" fill="none" stroke="#e0d7ce" stroke-width="2"/>
  <text x="56" y="78" font-family="Hiragino Sans, Yu Gothic, sans-serif" font-size="40" font-weight="800" fill="#332b27" text-anchor="start">ショップから注文する流れ</text>
  <text x="56" y="118" font-family="Hiragino Sans, Yu Gothic, sans-serif" font-size="24" font-weight="500" fill="#6d655f" text-anchor="start">商品詳細とカート確認のイメージです。</text>
  <rect x="120" y="168" width="360" height="620" rx="42" fill="#24201d" stroke="#24201d" stroke-width="2" /><rect x="134" y="182" width="332" height="592" rx="34" fill="#f7f1ea" stroke="#1d1916" stroke-width="2" /><rect x="230" y="188" width="140" height="18" rx="9" fill="#181513" stroke="#181513" stroke-width="0" /><rect x="148" y="220" width="304" height="74" rx="22" fill="#fffaf6" stroke="#e1d7ce" stroke-width="2" /><text x="168" y="265" font-family="Hiragino Sans, Yu Gothic, sans-serif" font-size="24" font-weight="700" fill="#342d28" text-anchor="start">ショップ</text><text x="436" y="265" font-family="Hiragino Sans, Yu Gothic, sans-serif" font-size="17" font-weight="600" fill="#8a7f77" text-anchor="end">商品詳細</text><rect x="150" y="260" width="300" height="180" rx="24" fill="#fff" stroke="#ddd3ca" stroke-width="2" /><text x="176" y="312" font-family="Hiragino Sans, Yu Gothic, sans-serif" font-size="27" font-weight="800" fill="#443832" text-anchor="start">天然だし調味粉</text><text x="176" y="354" font-family="Hiragino Sans, Yu Gothic, sans-serif" font-size="20" font-weight="500" fill="#7a7068" text-anchor="start">説明を確認して個数を選びます</text><rect x="170" y="486" width="120" height="60" rx="22" fill="#fff8f4" stroke="#e1d0c3" stroke-width="2" /><text x="230.0" y="525.8" font-family="Hiragino Sans, Yu Gothic, sans-serif" font-size="28" font-weight="700" fill="#463a34" text-anchor="middle">－</text><rect x="310" y="486" width="120" height="60" rx="22" fill="#fff8f4" stroke="#e1d0c3" stroke-width="2" /><text x="370.0" y="525.8" font-family="Hiragino Sans, Yu Gothic, sans-serif" font-size="28" font-weight="700" fill="#463a34" text-anchor="middle">＋</text><rect x="150" y="580" width="300" height="72" rx="22" fill="#f5e6dd" stroke="#d5b8a9" stroke-width="2" /><text x="300.0" y="624.4" font-family="Hiragino Sans, Yu Gothic, sans-serif" font-size="24" font-weight="700" fill="#463a34" text-anchor="middle">カートに追加する</text><rect x="142" y="574" width="316" height="84" rx="24" fill="none" stroke="#e23232" stroke-width="8" /><rect x="432" y="170" width="56" height="52" rx="24" fill="none" stroke="#e23232" stroke-width="8" /><rect x="650" y="168" width="360" height="620" rx="42" fill="#24201d" stroke="#24201d" stroke-width="2" /><rect x="664" y="182" width="332" height="592" rx="34" fill="#f7f1ea" stroke="#1d1916" stroke-width="2" /><rect x="760" y="188" width="140" height="18" rx="9" fill="#181513" stroke="#181513" stroke-width="0" /><rect x="678" y="220" width="304" height="74" rx="22" fill="#fffaf6" stroke="#e1d7ce" stroke-width="2" /><text x="698" y="265" font-family="Hiragino Sans, Yu Gothic, sans-serif" font-size="24" font-weight="700" fill="#342d28" text-anchor="start">カート</text><text x="966" y="265" font-family="Hiragino Sans, Yu Gothic, sans-serif" font-size="17" font-weight="600" fill="#8a7f77" text-anchor="end">注文確認</text><rect x="678" y="258" width="304" height="170" rx="24" fill="#fff" stroke="#ddd3ca" stroke-width="2" /><text x="704" y="312" font-family="Hiragino Sans, Yu Gothic, sans-serif" font-size="23" font-weight="800" fill="#443832" text-anchor="start">天然だし調味粉 × 2</text><text x="704" y="352" font-family="Hiragino Sans, Yu Gothic, sans-serif" font-size="24" font-weight="700" fill="#8d5a40" text-anchor="start">合計 ¥4,760</text><rect x="678" y="580" width="304" height="74" rx="22" fill="#eef3e7" stroke="#c7d2bc" stroke-width="2" /><text x="830.0" y="625.4" font-family="Hiragino Sans, Yu Gothic, sans-serif" font-size="24" font-weight="700" fill="#526147" text-anchor="middle">ご注文を確定する</text><rect x="670" y="574" width="320" height="86" rx="24" fill="none" stroke="#e23232" stroke-width="8" /><rect x="1084" y="186" width="250" height="584" rx="28" fill="#fff" stroke="#ddd3ca" stroke-width="2" /><text x="1114" y="254" font-family="Hiragino Sans, Yu Gothic, sans-serif" font-size="21" font-weight="500" fill="#615852" text-anchor="start">1. 商品詳細で内容を確認</text><text x="1114" y="296" font-family="Hiragino Sans, Yu Gothic, sans-serif" font-size="21" font-weight="500" fill="#615852" text-anchor="start">2. 赤枠の「カートに追加する」を押す</text><text x="1114" y="338" font-family="Hiragino Sans, Yu Gothic, sans-serif" font-size="21" font-weight="500" fill="#615852" text-anchor="start">3. 右上の「🛒」でカートを開く</text><text x="1114" y="380" font-family="Hiragino Sans, Yu Gothic, sans-serif" font-size="21" font-weight="500" fill="#615852" text-anchor="start">4. 「ご注文を確定する」で完了</text>
</svg>