<svg xmlns="http://www.w3.org/2000/svg" width="1440" height="900" viewBox="0 0 1440 900">
  <defs>
    <linearGradient id="bg" x1="0" y1="0" x2="1" y2="1">
      <stop offset="0%" stop-color="#fffdf9"/>
      <stop offset="100%" stop-color="#f7efe7"/>
    </linearGradient>
  </defs>
  <rect width="1440" height="900" fill="url(#bg)"/>
  <rect x="24" y="24" width="1392" height="852" rx="36" fill="none" stroke="#e0d7ce" stroke-width="2"/>
  <text x="56" y="78" font-family="Hiragino Sans, Yu Gothic, sans-serif" font-size="40" font-weight="800" fill="#332b27" text-anchor="start">新規登録と復元の入り口</text>
  <text x="56" y="118" font-family="Hiragino Sans, Yu Gothic, sans-serif" font-size="24" font-weight="500" fill="#6d655f" text-anchor="start">以前登録した方と、はじめての方で入口が分かれています。</text>
  <rect x="100" y="170" width="340" height="620" rx="42" fill="#24201d" stroke="#24201d" stroke-width="2" /><rect x="114" y="184" width="312" height="592" rx="34" fill="#f7f1ea" stroke="#1d1916" stroke-width="2" /><rect x="210" y="190" width="120" height="18" rx="9" fill="#181513" stroke="#181513" stroke-width="0" /><rect x="128" y="222" width="284" height="74" rx="22" fill="#fffaf6" stroke="#e1d7ce" stroke-width="2" /><text x="148" y="267" font-family="Hiragino Sans, Yu Gothic, sans-serif" font-size="24" font-weight="700" fill="#342d28" text-anchor="start">はじめる</text><text x="396" y="267" font-family="Hiragino Sans, Yu Gothic, sans-serif" font-size="17" font-weight="600" fill="#8a7f77" text-anchor="end">NEW</text><rect x="128" y="300" width="284" height="94" rx="22" fill="#fff8f4" stroke="#d8c3b2" stroke-width="2" /><text x="270.0" y="354.0" font-family="Hiragino Sans, Yu Gothic, sans-serif" font-size="20" font-weight="700" fill="#463a34" text-anchor="middle">以前登録した方はこちら</text><rect x="128" y="426" width="284" height="94" rx="22" fill="#fff8f4" stroke="#d8c3b2" stroke-width="2" /><text x="270.0" y="479.3" font-family="Hiragino Sans, Yu Gothic, sans-serif" font-size="18" font-weight="700" fill="#463a34" text-anchor="middle">はじめて登録する方はこちら</text><rect x="128" y="552" width="284" height="94" rx="22" fill="#f4f7ee" stroke="#c9d3be" stroke-width="2" /><text x="270.0" y="606.0" font-family="Hiragino Sans, Yu Gothic, sans-serif" font-size="20" font-weight="700" fill="#526147" text-anchor="middle">ログイン・引き継ぎ</text><rect x="120" y="294" width="300" height="106" rx="24" fill="none" stroke="#e23232" stroke-width="8" /><rect x="120" y="420" width="300" height="106" rx="24" fill="none" stroke="#e23232" stroke-width="8" /><rect x="500" y="250" width="220" height="56" rx="20" fill="#fff4f4" stroke="#e23232" stroke-width="3" /><text x="610" y="285" font-family="Hiragino Sans, Yu Gothic, sans-serif" font-size="22" font-weight="700" fill="#b01e1e" text-anchor="middle">最初に選ぶ</text><rect x="700" y="170" width="340" height="620" rx="42" fill="#24201d" stroke="#24201d" stroke-width="2" /><rect x="714" y="184" width="312" height="592" rx="34" fill="#f7f1ea" stroke="#1d1916" stroke-width="2" /><rect x="810" y="190" width="120" height="18" rx="9" fill="#181513" stroke="#181513" stroke-width="0" /><rect x="728" y="222" width="284" height="74" rx="22" fill="#fffaf6" stroke="#e1d7ce" stroke-width="2" /><text x="748" y="267" font-family="Hiragino Sans, Yu Gothic, sans-serif" font-size="24" font-weight="700" fill="#342d28" text-anchor="start">プロフィール登録</text><text x="996" y="267" font-family="Hiragino Sans, Yu Gothic, sans-serif" font-size="17" font-weight="600" fill="#8a7f77" text-anchor="end">STEP 1</text><rect x="728" y="270" width="284" height="84" rx="18" fill="#fff9f4" stroke="#d8c3b2" stroke-width="2" /><text x="746" y="298" font-family="Hiragino Sans, Yu Gothic, sans-serif" font-size="19" font-weight="700" fill="#7d7168" text-anchor="start">お名前（必須）</text><text x="746" y="328" font-family="Hiragino Sans, Yu Gothic, sans-serif" font-size="23" font-weight="600" fill="#322b27" text-anchor="start">まゆみ はなこ</text><rect x="728" y="370" width="284" height="84" rx="18" fill="#ffffff" stroke="#d7cec6" stroke-width="2" /><text x="746" y="398" font-family="Hiragino Sans, Yu Gothic, sans-serif" font-size="19" font-weight="700" fill="#7d7168" text-anchor="start">電話番号</text><text x="746" y="428" font-family="Hiragino Sans, Yu Gothic, sans-serif" font-size="23" font-weight="600" fill="#322b27" text-anchor="start">09012345678</text><rect x="728" y="470" width="284" height="84" rx="18" fill="#ffffff" stroke="#d7cec6" stroke-width="2" /><text x="746" y="498" font-family="Hiragino Sans, Yu Gothic, sans-serif" font-size="19" font-weight="700" fill="#7d7168" text-anchor="start">生年月日</text><text x="746" y="528" font-family="Hiragino Sans, Yu Gothic, sans-serif" font-size="23" font-weight="600" fill="#322b27" text-anchor="start">1990/01/02</text><rect x="728" y="570" width="284" height="84" rx="18" fill="#fff9f4" stroke="#d8c3b2" stroke-width="2" /><text x="746" y="598" font-family="Hiragino Sans, Yu Gothic, sans-serif" font-size="19" font-weight="700" fill="#7d7168" text-anchor="start">パスコード</text><text x="746" y="628" font-family="Hiragino Sans, Yu Gothic, sans-serif" font-size="23" font-weight="600" fill="#322b27" text-anchor="start">••••</text><rect x="728" y="678" width="284" height="78" rx="22" fill="#f5e6dd" stroke="#d5b8a9" stroke-width="2" /><text x="870.0" y="711.15" font-family="Hiragino Sans, Yu Gothic, sans-serif" font-size="19" font-weight="700" fill="#463a34" text-anchor="middle">登録して</text><text x="870.0" y="736.15" font-family="Hiragino Sans, Yu Gothic, sans-serif" font-size="19" font-weight="700" fill="#463a34" text-anchor="middle">アプリを始める</text><rect x="720" y="264" width="300" height="88" rx="24" fill="none" stroke="#e23232" stroke-width="8" /><rect x="720" y="672" width="300" height="90" rx="24" fill="none" stroke="#e23232" stroke-width="8" /><rect x="1066" y="208" width="296" height="544" rx="28" fill="#fff" stroke="#ddd3ca" stroke-width="2" /><text x="1096" y="264" font-family="Hiragino Sans, Yu Gothic, sans-serif" font-size="20" font-weight="600" fill="#473a34" text-anchor="start">赤枠のボタンから進みます。</text><text x="1096" y="304" font-family="Hiragino Sans, Yu Gothic, sans-serif" font-size="20" font-weight="600" fill="#473a34" text-anchor="start">・以前登録した方:</text><text x="1096" y="344" font-family="Hiragino Sans, Yu Gothic, sans-serif" font-size="20" font-weight="600" fill="#473a34" text-anchor="start">  新規登録し直さず復元へ</text><text x="1096" y="384" font-family="Hiragino Sans, Yu Gothic, sans-serif" font-size="20" font-weight="600" fill="#473a34" text-anchor="start">・はじめての方:</text><text x="1096" y="424" font-family="Hiragino Sans, Yu Gothic, sans-serif" font-size="20" font-weight="600" fill="#473a34" text-anchor="start">  お名前とパスコードを入力して登録</text>
</svg>